<svg width="340" height="296" viewBox="0 0 340 296" fill="none" xmlns="http://www.w3.org/2000/svg">
<path fill-rule="evenodd" clip-rule="evenodd" d="M10.6 292.7C10.6 292.7 -9.40001 263.633 5.53333 235.4C19.3667 209.5 44.1 190.333 74.1 177.733L83.8667 186.767L75.0333 230.1L131.4 162.467C142.326 160.93 153.335 160.062 164.367 159.867L173.333 171.6L156.4 227.7L213.333 163.2C227.708 165.5 241.836 169.138 255.533 174.067L261.6 188.533L247.367 232.267L292.133 192.267C308.469 202.641 321.819 217.093 330.867 234.2C351.533 275.067 330.3 295.233 330.3 295.233L10.6 292.7ZM236.667 119.367C239.717 115.917 242.006 111.863 243.385 107.469C244.763 103.076 245.2 98.4406 244.667 93.8666C242.233 78.3999 231.733 79.9 226.2 62.3666C221.867 48.6666 233.933 26.5666 246.933 16.9999L257.967 27.4C250.1 33.8333 250.2 43.3333 252.733 51.4666C257.2 65.7666 268.433 65.3333 271.067 83.4333C273.233 98.5 262.5 120.9 247.733 129.233L236.667 119.367ZM164.4 113.967C171.8 106.667 177.1 94.3666 175.067 85.7333C171.467 70.2666 152.7 66.7333 148.4 48.8333C144.6 32.4666 158.833 10.2999 171.733 0.733276L182.767 11.1333C179.071 14.3824 176.365 18.608 174.962 23.3249C173.559 28.0418 173.514 33.0588 174.833 37.7999C178.167 52.3999 197.033 57.1 201.267 75.2333C204.6 90.0333 190.033 115.233 175.333 123.7L164.4 113.967ZM91.0667 119.367C94.1171 115.917 96.4062 111.863 97.7846 107.469C99.1631 103.076 99.5999 98.4406 99.0667 93.8666C96.6333 78.3999 86.1 79.9 80.6 62.3666C76.1667 48.6666 88.2667 26.5666 101.233 16.9999L112.3 27.4C104.433 33.8333 104.5 43.3333 107.067 51.4666C111.533 65.7666 122.767 65.3333 125.4 83.4333C127.567 98.5 116.833 120.9 102.067 129.233L91.0667 119.367Z" fill="white"/>
</svg>
